<mxfile host="app.diagrams.net" modified="2021-05-27T09:11:11.906Z" agent="5.0 (Windows NT 10.0; Win64; x64) AppleWebKit/537.36 (KHTML, like Gecko) Chrome/90.0.4430.212 Safari/537.36" etag="kqXxFqt_n__wq6M5nWSH" version="14.7.2" type="github">
  <diagram id="ytJm-4WcB6ZGAaltWZKI" name="Page-1">
    <mxGraphModel dx="2222" dy="1194" grid="1" gridSize="10" guides="1" tooltips="1" connect="1" arrows="1" fold="1" page="0" pageScale="1" pageWidth="1169" pageHeight="827" background="#F1FAEE" math="0" shadow="0">
      <root>
        <mxCell id="0" />
        <mxCell id="1" parent="0" />
        <mxCell id="Lo6s8V4BhfVK1jpsfnPi-21" value="Inherit" style="edgeStyle=orthogonalEdgeStyle;rounded=0;sketch=0;orthogonalLoop=1;jettySize=auto;html=1;exitX=0.5;exitY=0;exitDx=0;exitDy=0;fontColor=#1D3557;fillColor=#A8DADC;entryX=0.209;entryY=1.021;entryDx=0;entryDy=0;entryPerimeter=0;endArrow=block;endFill=0;" parent="1" source="Lo6s8V4BhfVK1jpsfnPi-1" edge="1" target="Lo6s8V4BhfVK1jpsfnPi-20">
          <mxGeometry relative="1" as="geometry">
            <mxPoint x="130" y="14" as="targetPoint" />
            <Array as="points">
              <mxPoint x="10" y="54" />
              <mxPoint x="129" y="54" />
            </Array>
          </mxGeometry>
        </mxCell>
        <mxCell id="Lo6s8V4BhfVK1jpsfnPi-1" value="Record Issue Staff" style="swimlane;fontStyle=0;childLayout=stackLayout;horizontal=1;startSize=26;horizontalStack=0;resizeParent=1;resizeParentMax=0;resizeLast=0;collapsible=1;marginBottom=0;rounded=0;sketch=0;fontColor=#1D3557;strokeColor=#457B9D;fillColor=#A8DADC;" parent="1" vertex="1">
          <mxGeometry x="-60" y="84" width="140" height="78" as="geometry" />
        </mxCell>
        <mxCell id="Lo6s8V4BhfVK1jpsfnPi-2" value="Item 1" style="text;strokeColor=none;fillColor=none;align=left;verticalAlign=top;spacingLeft=4;spacingRight=4;overflow=hidden;rotatable=0;points=[[0,0.5],[1,0.5]];portConstraint=eastwest;" parent="Lo6s8V4BhfVK1jpsfnPi-1" vertex="1">
          <mxGeometry y="26" width="140" height="26" as="geometry" />
        </mxCell>
        <mxCell id="Lo6s8V4BhfVK1jpsfnPi-3" value="Item 2" style="text;fillColor=none;align=left;verticalAlign=top;spacingLeft=4;spacingRight=4;overflow=hidden;rotatable=0;points=[[0,0.5],[1,0.5]];portConstraint=eastwest;strokeColor=#000000;" parent="Lo6s8V4BhfVK1jpsfnPi-1" vertex="1">
          <mxGeometry y="52" width="140" height="26" as="geometry" />
        </mxCell>
        <mxCell id="Lo6s8V4BhfVK1jpsfnPi-22" value="Inherit" style="edgeStyle=orthogonalEdgeStyle;rounded=0;sketch=0;orthogonalLoop=1;jettySize=auto;html=1;exitX=0.5;exitY=0;exitDx=0;exitDy=0;entryX=0.486;entryY=1.077;entryDx=0;entryDy=0;entryPerimeter=0;fontColor=#1D3557;fillColor=#A8DADC;strokeColor=#091014;endArrow=block;endFill=0;" parent="1" source="Lo6s8V4BhfVK1jpsfnPi-5" target="Lo6s8V4BhfVK1jpsfnPi-20" edge="1">
          <mxGeometry relative="1" as="geometry">
            <Array as="points">
              <mxPoint x="168" y="84" />
            </Array>
          </mxGeometry>
        </mxCell>
        <mxCell id="Lo6s8V4BhfVK1jpsfnPi-5" value="Maintance Staff" style="swimlane;fontStyle=0;childLayout=stackLayout;horizontal=1;startSize=26;horizontalStack=0;resizeParent=1;resizeParentMax=0;resizeLast=0;collapsible=1;marginBottom=0;rounded=0;sketch=0;fontColor=#1D3557;strokeColor=#457B9D;fillColor=#A8DADC;" parent="1" vertex="1">
          <mxGeometry x="100" y="84" width="140" height="78" as="geometry" />
        </mxCell>
        <mxCell id="Lo6s8V4BhfVK1jpsfnPi-6" value="Item 1" style="text;strokeColor=none;fillColor=none;align=left;verticalAlign=top;spacingLeft=4;spacingRight=4;overflow=hidden;rotatable=0;points=[[0,0.5],[1,0.5]];portConstraint=eastwest;" parent="Lo6s8V4BhfVK1jpsfnPi-5" vertex="1">
          <mxGeometry y="26" width="140" height="26" as="geometry" />
        </mxCell>
        <mxCell id="Lo6s8V4BhfVK1jpsfnPi-7" value="Item 2" style="text;fillColor=none;align=left;verticalAlign=top;spacingLeft=4;spacingRight=4;overflow=hidden;rotatable=0;points=[[0,0.5],[1,0.5]];portConstraint=eastwest;strokeColor=#000000;" parent="Lo6s8V4BhfVK1jpsfnPi-5" vertex="1">
          <mxGeometry y="52" width="140" height="26" as="geometry" />
        </mxCell>
        <mxCell id="Lo6s8V4BhfVK1jpsfnPi-23" value="Inherit" style="edgeStyle=orthogonalEdgeStyle;rounded=0;sketch=0;orthogonalLoop=1;jettySize=auto;html=1;exitX=0.5;exitY=0;exitDx=0;exitDy=0;fontColor=#1D3557;fillColor=#A8DADC;strokeColor=#091014;entryX=0.852;entryY=1.013;entryDx=0;entryDy=0;entryPerimeter=0;endArrow=block;endFill=0;" parent="1" source="Lo6s8V4BhfVK1jpsfnPi-9" target="Lo6s8V4BhfVK1jpsfnPi-20" edge="1">
          <mxGeometry relative="1" as="geometry">
            <mxPoint x="220" y="34" as="targetPoint" />
            <Array as="points">
              <mxPoint x="330" y="64" />
              <mxPoint x="219" y="64" />
            </Array>
          </mxGeometry>
        </mxCell>
        <mxCell id="Lo6s8V4BhfVK1jpsfnPi-9" value="Manager" style="swimlane;fontStyle=0;childLayout=stackLayout;horizontal=1;startSize=26;horizontalStack=0;resizeParent=1;resizeParentMax=0;resizeLast=0;collapsible=1;marginBottom=0;rounded=0;sketch=0;fontColor=#1D3557;strokeColor=#457B9D;fillColor=#A8DADC;" parent="1" vertex="1">
          <mxGeometry x="260" y="84" width="140" height="78" as="geometry" />
        </mxCell>
        <mxCell id="Lo6s8V4BhfVK1jpsfnPi-10" value="Item 1" style="text;strokeColor=none;fillColor=none;align=left;verticalAlign=top;spacingLeft=4;spacingRight=4;overflow=hidden;rotatable=0;points=[[0,0.5],[1,0.5]];portConstraint=eastwest;" parent="Lo6s8V4BhfVK1jpsfnPi-9" vertex="1">
          <mxGeometry y="26" width="140" height="26" as="geometry" />
        </mxCell>
        <mxCell id="Lo6s8V4BhfVK1jpsfnPi-11" value="Item 2" style="text;fillColor=none;align=left;verticalAlign=top;spacingLeft=4;spacingRight=4;overflow=hidden;rotatable=0;points=[[0,0.5],[1,0.5]];portConstraint=eastwest;strokeColor=#000000;" parent="Lo6s8V4BhfVK1jpsfnPi-9" vertex="1">
          <mxGeometry y="52" width="140" height="26" as="geometry" />
        </mxCell>
        <mxCell id="2NKSA_wgAgDvabQHiUOF-1" style="edgeStyle=orthogonalEdgeStyle;rounded=0;orthogonalLoop=1;jettySize=auto;html=1;exitX=1;exitY=0.5;exitDx=0;exitDy=0;entryX=0.47;entryY=0.991;entryDx=0;entryDy=0;entryPerimeter=0;endArrow=diamondThin;endFill=1;" edge="1" parent="1" source="Lo6s8V4BhfVK1jpsfnPi-14" target="S9WSTFggVogABzAUVLgP-4">
          <mxGeometry relative="1" as="geometry">
            <Array as="points">
              <mxPoint x="6" y="-50" />
              <mxPoint x="6" y="-100" />
            </Array>
          </mxGeometry>
        </mxCell>
        <mxCell id="Lo6s8V4BhfVK1jpsfnPi-13" value="Tenant" style="swimlane;fontStyle=0;childLayout=stackLayout;horizontal=1;startSize=26;horizontalStack=0;resizeParent=1;resizeParentMax=0;resizeLast=0;collapsible=1;marginBottom=0;rounded=0;sketch=0;fontColor=#1D3557;strokeColor=#457B9D;fillColor=#A8DADC;" parent="1" vertex="1">
          <mxGeometry x="-230" y="-108" width="140" height="116" as="geometry" />
        </mxCell>
        <mxCell id="Lo6s8V4BhfVK1jpsfnPi-14" value="+ Fname: string&#xa;+ Lname: string&#xa;+ Email: string&#xa;+ Phone: string" style="text;strokeColor=none;fillColor=none;align=left;verticalAlign=top;spacingLeft=4;spacingRight=4;overflow=hidden;rotatable=0;points=[[0,0.5],[1,0.5]];portConstraint=eastwest;" parent="Lo6s8V4BhfVK1jpsfnPi-13" vertex="1">
          <mxGeometry y="26" width="140" height="64" as="geometry" />
        </mxCell>
        <mxCell id="Lo6s8V4BhfVK1jpsfnPi-15" value="Item 2" style="text;fillColor=none;align=left;verticalAlign=top;spacingLeft=4;spacingRight=4;overflow=hidden;rotatable=0;points=[[0,0.5],[1,0.5]];portConstraint=eastwest;strokeColor=#000000;" parent="Lo6s8V4BhfVK1jpsfnPi-13" vertex="1">
          <mxGeometry y="90" width="140" height="26" as="geometry" />
        </mxCell>
        <mxCell id="2NKSA_wgAgDvabQHiUOF-2" style="edgeStyle=orthogonalEdgeStyle;rounded=0;orthogonalLoop=1;jettySize=auto;html=1;exitX=0.5;exitY=0;exitDx=0;exitDy=0;entryX=0.579;entryY=0.962;entryDx=0;entryDy=0;entryPerimeter=0;endArrow=diamondThin;endFill=1;" edge="1" parent="1" source="Lo6s8V4BhfVK1jpsfnPi-17" target="S9WSTFggVogABzAUVLgP-23">
          <mxGeometry relative="1" as="geometry" />
        </mxCell>
        <mxCell id="Lo6s8V4BhfVK1jpsfnPi-17" value="User" style="swimlane;fontStyle=0;childLayout=stackLayout;horizontal=1;startSize=26;horizontalStack=0;resizeParent=1;resizeParentMax=0;resizeLast=0;collapsible=1;marginBottom=0;rounded=0;sketch=0;fontColor=#1D3557;strokeColor=#457B9D;fillColor=#A8DADC;" parent="1" vertex="1">
          <mxGeometry x="100" y="-96" width="140" height="104" as="geometry" />
        </mxCell>
        <mxCell id="Lo6s8V4BhfVK1jpsfnPi-18" value="Item 1" style="text;strokeColor=none;fillColor=none;align=left;verticalAlign=top;spacingLeft=4;spacingRight=4;overflow=hidden;rotatable=0;points=[[0,0.5],[1,0.5]];portConstraint=eastwest;" parent="Lo6s8V4BhfVK1jpsfnPi-17" vertex="1">
          <mxGeometry y="26" width="140" height="26" as="geometry" />
        </mxCell>
        <mxCell id="Lo6s8V4BhfVK1jpsfnPi-19" value="Item 2" style="text;strokeColor=none;fillColor=none;align=left;verticalAlign=top;spacingLeft=4;spacingRight=4;overflow=hidden;rotatable=0;points=[[0,0.5],[1,0.5]];portConstraint=eastwest;" parent="Lo6s8V4BhfVK1jpsfnPi-17" vertex="1">
          <mxGeometry y="52" width="140" height="26" as="geometry" />
        </mxCell>
        <mxCell id="Lo6s8V4BhfVK1jpsfnPi-20" value="Item 3" style="text;strokeColor=none;fillColor=none;align=left;verticalAlign=top;spacingLeft=4;spacingRight=4;overflow=hidden;rotatable=0;points=[[0,0.5],[1,0.5]];portConstraint=eastwest;" parent="Lo6s8V4BhfVK1jpsfnPi-17" vertex="1">
          <mxGeometry y="78" width="140" height="26" as="geometry" />
        </mxCell>
        <mxCell id="S9WSTFggVogABzAUVLgP-1" value="Issue Record" style="swimlane;fontStyle=0;childLayout=stackLayout;horizontal=1;startSize=26;horizontalStack=0;resizeParent=1;resizeParentMax=0;resizeLast=0;collapsible=1;marginBottom=0;rounded=0;sketch=0;fontColor=#1D3557;strokeColor=#457B9D;fillColor=#A8DADC;" parent="1" vertex="1">
          <mxGeometry x="-60" y="-400" width="140" height="78" as="geometry" />
        </mxCell>
        <mxCell id="S9WSTFggVogABzAUVLgP-2" value="+ Id: Guid" style="text;strokeColor=none;fillColor=none;align=left;verticalAlign=top;spacingLeft=4;spacingRight=4;overflow=hidden;rotatable=0;points=[[0,0.5],[1,0.5]];portConstraint=eastwest;" parent="S9WSTFggVogABzAUVLgP-1" vertex="1">
          <mxGeometry y="26" width="140" height="26" as="geometry" />
        </mxCell>
        <mxCell id="S9WSTFggVogABzAUVLgP-4" value="Item 3" style="text;fillColor=none;align=left;verticalAlign=top;spacingLeft=4;spacingRight=4;overflow=hidden;rotatable=0;points=[[0,0.5],[1,0.5]];portConstraint=eastwest;strokeColor=#000000;" parent="S9WSTFggVogABzAUVLgP-1" vertex="1">
          <mxGeometry y="52" width="140" height="26" as="geometry" />
        </mxCell>
        <mxCell id="S9WSTFggVogABzAUVLgP-5" value="Issue Search" style="swimlane;fontStyle=0;childLayout=stackLayout;horizontal=1;startSize=26;horizontalStack=0;resizeParent=1;resizeParentMax=0;resizeLast=0;collapsible=1;marginBottom=0;rounded=0;sketch=0;fontColor=#1D3557;strokeColor=#457B9D;fillColor=#A8DADC;" parent="1" vertex="1">
          <mxGeometry x="200" y="-400" width="140" height="78" as="geometry" />
        </mxCell>
        <mxCell id="S9WSTFggVogABzAUVLgP-6" value="Item 1" style="text;strokeColor=none;fillColor=none;align=left;verticalAlign=top;spacingLeft=4;spacingRight=4;overflow=hidden;rotatable=0;points=[[0,0.5],[1,0.5]];portConstraint=eastwest;" parent="S9WSTFggVogABzAUVLgP-5" vertex="1">
          <mxGeometry y="26" width="140" height="26" as="geometry" />
        </mxCell>
        <mxCell id="S9WSTFggVogABzAUVLgP-7" value="Item 2" style="text;fillColor=none;align=left;verticalAlign=top;spacingLeft=4;spacingRight=4;overflow=hidden;rotatable=0;points=[[0,0.5],[1,0.5]];portConstraint=eastwest;strokeColor=#000000;" parent="S9WSTFggVogABzAUVLgP-5" vertex="1">
          <mxGeometry y="52" width="140" height="26" as="geometry" />
        </mxCell>
        <mxCell id="S9WSTFggVogABzAUVLgP-13" value="CLI" style="swimlane;fontStyle=0;childLayout=stackLayout;horizontal=1;startSize=26;horizontalStack=0;resizeParent=1;resizeParentMax=0;resizeLast=0;collapsible=1;marginBottom=0;rounded=0;sketch=0;fontColor=#1D3557;strokeColor=#457B9D;fillColor=#A8DADC;" parent="1" vertex="1">
          <mxGeometry x="-580" y="-334" width="140" height="104" as="geometry" />
        </mxCell>
        <mxCell id="S9WSTFggVogABzAUVLgP-14" value="Item 1" style="text;strokeColor=none;fillColor=none;align=left;verticalAlign=top;spacingLeft=4;spacingRight=4;overflow=hidden;rotatable=0;points=[[0,0.5],[1,0.5]];portConstraint=eastwest;" parent="S9WSTFggVogABzAUVLgP-13" vertex="1">
          <mxGeometry y="26" width="140" height="26" as="geometry" />
        </mxCell>
        <mxCell id="S9WSTFggVogABzAUVLgP-15" value="Item 2" style="text;strokeColor=none;fillColor=none;align=left;verticalAlign=top;spacingLeft=4;spacingRight=4;overflow=hidden;rotatable=0;points=[[0,0.5],[1,0.5]];portConstraint=eastwest;" parent="S9WSTFggVogABzAUVLgP-13" vertex="1">
          <mxGeometry y="52" width="140" height="26" as="geometry" />
        </mxCell>
        <mxCell id="S9WSTFggVogABzAUVLgP-16" value="Item 3" style="text;strokeColor=none;fillColor=none;align=left;verticalAlign=top;spacingLeft=4;spacingRight=4;overflow=hidden;rotatable=0;points=[[0,0.5],[1,0.5]];portConstraint=eastwest;" parent="S9WSTFggVogABzAUVLgP-13" vertex="1">
          <mxGeometry y="78" width="140" height="26" as="geometry" />
        </mxCell>
        <mxCell id="S9WSTFggVogABzAUVLgP-26" style="edgeStyle=orthogonalEdgeStyle;rounded=0;orthogonalLoop=1;jettySize=auto;html=1;exitX=0.5;exitY=0;exitDx=0;exitDy=0;shadow=0;sketch=0;endArrow=diamondThin;endFill=1;" parent="1" source="S9WSTFggVogABzAUVLgP-21" edge="1">
          <mxGeometry relative="1" as="geometry">
            <mxPoint x="60" y="-320" as="targetPoint" />
          </mxGeometry>
        </mxCell>
        <mxCell id="S9WSTFggVogABzAUVLgP-21" value="Notes" style="swimlane;fontStyle=0;childLayout=stackLayout;horizontal=1;startSize=26;horizontalStack=0;resizeParent=1;resizeParentMax=0;resizeLast=0;collapsible=1;marginBottom=0;rounded=0;sketch=0;fontColor=#1D3557;strokeColor=#457B9D;fillColor=#A8DADC;" parent="1" vertex="1">
          <mxGeometry x="150" y="-260" width="140" height="96" as="geometry" />
        </mxCell>
        <mxCell id="S9WSTFggVogABzAUVLgP-22" value="+ Issue: List&lt;Issue&gt;&#xa;+ Date: DateTime" style="text;strokeColor=none;fillColor=none;align=left;verticalAlign=top;spacingLeft=4;spacingRight=4;overflow=hidden;rotatable=0;points=[[0,0.5],[1,0.5]];portConstraint=eastwest;" parent="S9WSTFggVogABzAUVLgP-21" vertex="1">
          <mxGeometry y="26" width="140" height="44" as="geometry" />
        </mxCell>
        <mxCell id="S9WSTFggVogABzAUVLgP-23" value="Item 2" style="text;fillColor=none;align=left;verticalAlign=top;spacingLeft=4;spacingRight=4;overflow=hidden;rotatable=0;points=[[0,0.5],[1,0.5]];portConstraint=eastwest;strokeColor=#000000;" parent="S9WSTFggVogABzAUVLgP-21" vertex="1">
          <mxGeometry y="70" width="140" height="26" as="geometry" />
        </mxCell>
        <mxCell id="S9WSTFggVogABzAUVLgP-28" value="Dependency" style="edgeStyle=orthogonalEdgeStyle;rounded=0;sketch=0;orthogonalLoop=1;jettySize=auto;html=1;exitX=0;exitY=0.5;exitDx=0;exitDy=0;entryX=1;entryY=0.5;entryDx=0;entryDy=0;shadow=0;strokeColor=#091014;dashed=1;endArrow=openThin;endFill=0;" parent="1" source="S9WSTFggVogABzAUVLgP-7" edge="1">
          <mxGeometry relative="1" as="geometry">
            <mxPoint x="80.00000000000023" y="-335" as="targetPoint" />
          </mxGeometry>
        </mxCell>
        <mxCell id="S9WSTFggVogABzAUVLgP-29" value="Edit Issue" style="swimlane;fontStyle=0;childLayout=stackLayout;horizontal=1;startSize=26;horizontalStack=0;resizeParent=1;resizeParentMax=0;resizeLast=0;collapsible=1;marginBottom=0;rounded=0;sketch=0;fontColor=#1D3557;strokeColor=#457B9D;fillColor=#A8DADC;" parent="1" vertex="1">
          <mxGeometry x="-300" y="-400" width="140" height="106" as="geometry" />
        </mxCell>
        <mxCell id="S9WSTFggVogABzAUVLgP-30" value="+ editDate: DateTime&#xa;+ State: enum *---*&#xa;+ Cost: string" style="text;strokeColor=none;fillColor=none;align=left;verticalAlign=top;spacingLeft=4;spacingRight=4;overflow=hidden;rotatable=0;points=[[0,0.5],[1,0.5]];portConstraint=eastwest;" parent="S9WSTFggVogABzAUVLgP-29" vertex="1">
          <mxGeometry y="26" width="140" height="54" as="geometry" />
        </mxCell>
        <mxCell id="S9WSTFggVogABzAUVLgP-31" value="Item 2" style="text;fillColor=none;align=left;verticalAlign=top;spacingLeft=4;spacingRight=4;overflow=hidden;rotatable=0;points=[[0,0.5],[1,0.5]];portConstraint=eastwest;strokeColor=#000000;" parent="S9WSTFggVogABzAUVLgP-29" vertex="1">
          <mxGeometry y="80" width="140" height="26" as="geometry" />
        </mxCell>
        <mxCell id="S9WSTFggVogABzAUVLgP-33" value="Dependency" style="edgeStyle=orthogonalEdgeStyle;rounded=0;sketch=0;orthogonalLoop=1;jettySize=auto;html=1;exitX=1.025;exitY=0.728;exitDx=0;exitDy=0;entryX=0;entryY=0.5;entryDx=0;entryDy=0;shadow=0;strokeColor=#091014;dashed=1;endArrow=openThin;endFill=0;exitPerimeter=0;" parent="1" source="S9WSTFggVogABzAUVLgP-30" edge="1">
          <mxGeometry relative="1" as="geometry">
            <mxPoint x="-40" y="-450" as="sourcePoint" />
            <mxPoint x="-60" y="-335" as="targetPoint" />
          </mxGeometry>
        </mxCell>
        <mxCell id="S9WSTFggVogABzAUVLgP-38" style="edgeStyle=orthogonalEdgeStyle;rounded=0;sketch=0;orthogonalLoop=1;jettySize=auto;html=1;exitX=0.5;exitY=0;exitDx=0;exitDy=0;entryX=0.21;entryY=1.019;entryDx=0;entryDy=0;entryPerimeter=0;shadow=0;endArrow=diamondThin;endFill=1;strokeColor=#091014;" parent="1" source="S9WSTFggVogABzAUVLgP-34" target="S9WSTFggVogABzAUVLgP-4" edge="1">
          <mxGeometry relative="1" as="geometry" />
        </mxCell>
        <mxCell id="S9WSTFggVogABzAUVLgP-34" value="Building" style="swimlane;fontStyle=0;childLayout=stackLayout;horizontal=1;startSize=26;horizontalStack=0;resizeParent=1;resizeParentMax=0;resizeLast=0;collapsible=1;marginBottom=0;rounded=0;sketch=0;fontColor=#1D3557;strokeColor=#457B9D;fillColor=#A8DADC;" parent="1" vertex="1">
          <mxGeometry x="-230" y="-230" width="140" height="106" as="geometry" />
        </mxCell>
        <mxCell id="S9WSTFggVogABzAUVLgP-35" value="+ Address: string&#xa;+ buildingName: string&#xa;+ Type: enmu *---*" style="text;strokeColor=none;fillColor=none;align=left;verticalAlign=top;spacingLeft=4;spacingRight=4;overflow=hidden;rotatable=0;points=[[0,0.5],[1,0.5]];portConstraint=eastwest;" parent="S9WSTFggVogABzAUVLgP-34" vertex="1">
          <mxGeometry y="26" width="140" height="54" as="geometry" />
        </mxCell>
        <mxCell id="S9WSTFggVogABzAUVLgP-36" value="Item 2" style="text;fillColor=none;align=left;verticalAlign=top;spacingLeft=4;spacingRight=4;overflow=hidden;rotatable=0;points=[[0,0.5],[1,0.5]];portConstraint=eastwest;strokeColor=#000000;" parent="S9WSTFggVogABzAUVLgP-34" vertex="1">
          <mxGeometry y="80" width="140" height="26" as="geometry" />
        </mxCell>
        <mxCell id="2NKSA_wgAgDvabQHiUOF-3" value="Authentication" style="swimlane;fontStyle=0;childLayout=stackLayout;horizontal=1;startSize=26;horizontalStack=0;resizeParent=1;resizeParentMax=0;resizeLast=0;collapsible=1;marginBottom=0;rounded=0;sketch=0;fontColor=#1D3557;strokeColor=#457B9D;fillColor=#A8DADC;" vertex="1" parent="1">
          <mxGeometry x="-580" y="-200" width="140" height="104" as="geometry" />
        </mxCell>
        <mxCell id="2NKSA_wgAgDvabQHiUOF-4" value="Item 1" style="text;strokeColor=none;fillColor=none;align=left;verticalAlign=top;spacingLeft=4;spacingRight=4;overflow=hidden;rotatable=0;points=[[0,0.5],[1,0.5]];portConstraint=eastwest;" vertex="1" parent="2NKSA_wgAgDvabQHiUOF-3">
          <mxGeometry y="26" width="140" height="26" as="geometry" />
        </mxCell>
        <mxCell id="2NKSA_wgAgDvabQHiUOF-5" value="Item 2" style="text;strokeColor=none;fillColor=none;align=left;verticalAlign=top;spacingLeft=4;spacingRight=4;overflow=hidden;rotatable=0;points=[[0,0.5],[1,0.5]];portConstraint=eastwest;" vertex="1" parent="2NKSA_wgAgDvabQHiUOF-3">
          <mxGeometry y="52" width="140" height="26" as="geometry" />
        </mxCell>
        <mxCell id="2NKSA_wgAgDvabQHiUOF-6" value="Item 3" style="text;strokeColor=none;fillColor=none;align=left;verticalAlign=top;spacingLeft=4;spacingRight=4;overflow=hidden;rotatable=0;points=[[0,0.5],[1,0.5]];portConstraint=eastwest;" vertex="1" parent="2NKSA_wgAgDvabQHiUOF-3">
          <mxGeometry y="78" width="140" height="26" as="geometry" />
        </mxCell>
      </root>
    </mxGraphModel>
  </diagram>
</mxfile>
